<?xml version="1.0" standalone="no"?>
<!DOCTYPE svg PUBLIC "-//W3C//DTD SVG 1.1//EN" "http://www.w3.org/Graphics/SVG/1.1/DTD/svg11.dtd">
<svg version="1.1" xmlns="http://www.w3.org/2000/svg" viewBox="0 0 414.62081486762327 414.62081486762327" width="829.2416297352465" height="829.2416297352465"><!-- svg-source:excalidraw --><metadata></metadata><defs><style class="style-fonts">
      </style></defs><g stroke-linecap="round" transform="translate(10 10) rotate(0 197.31040743381163 197.31040743381163)"><path d="M394.62 197.31 C394.62 201.8, 394.47 206.3, 394.16 210.78 C393.85 215.25, 393.39 219.73, 392.78 224.18 C392.17 228.62, 391.41 233.06, 390.49 237.45 C389.58 241.85, 388.51 246.22, 387.3 250.54 C386.09 254.87, 384.73 259.16, 383.23 263.39 C381.73 267.61, 380.07 271.8, 378.29 275.92 C376.5 280.04, 374.56 284.1, 372.5 288.09 C370.43 292.07, 368.23 295.99, 365.9 299.83 C363.56 303.66, 361.1 307.43, 358.51 311.1 C355.92 314.76, 353.2 318.35, 350.37 321.83 C347.53 325.31, 344.58 328.71, 341.51 331.99 C338.45 335.27, 335.27 338.45, 331.99 341.51 C328.71 344.58, 325.31 347.53, 321.83 350.37 C318.35 353.2, 314.76 355.92, 311.1 358.51 C307.43 361.1, 303.66 363.56, 299.83 365.9 C295.99 368.23, 292.07 370.43, 288.09 372.5 C284.1 374.56, 280.04 376.5, 275.92 378.29 C271.8 380.07, 267.61 381.73, 263.39 383.23 C259.16 384.73, 254.87 386.09, 250.54 387.3 C246.22 388.51, 241.85 389.58, 237.45 390.49 C233.06 391.41, 228.62 392.17, 224.18 392.78 C219.73 393.39, 215.25 393.85, 210.78 394.16 C206.3 394.47, 201.8 394.62, 197.31 394.62 C192.82 394.62, 188.32 394.47, 183.85 394.16 C179.37 393.85, 174.89 393.39, 170.44 392.78 C166 392.17, 161.56 391.41, 157.17 390.49 C152.77 389.58, 148.4 388.51, 144.08 387.3 C139.75 386.09, 135.46 384.73, 131.24 383.23 C127.01 381.73, 122.82 380.07, 118.7 378.29 C114.58 376.5, 110.52 374.56, 106.53 372.5 C102.55 370.43, 98.63 368.23, 94.79 365.9 C90.96 363.56, 87.19 361.1, 83.53 358.51 C79.86 355.92, 76.27 353.2, 72.79 350.37 C69.31 347.53, 65.92 344.58, 62.64 341.51 C59.36 338.45, 56.17 335.27, 53.11 331.99 C50.05 328.71, 47.09 325.31, 44.25 321.83 C41.42 318.35, 38.7 314.76, 36.11 311.1 C33.53 307.43, 31.06 303.66, 28.72 299.83 C26.39 295.99, 24.19 292.07, 22.12 288.09 C20.06 284.1, 18.12 280.04, 16.34 275.92 C14.55 271.8, 12.9 267.61, 11.39 263.39 C9.89 259.16, 8.53 254.87, 7.32 250.54 C6.11 246.22, 5.04 241.85, 4.13 237.45 C3.21 233.06, 2.45 228.62, 1.84 224.18 C1.23 219.73, 0.77 215.25, 0.46 210.78 C0.15 206.3, 0 201.8, 0 197.31 C0 192.82, 0.15 188.32, 0.46 183.85 C0.77 179.37, 1.23 174.89, 1.84 170.44 C2.45 166, 3.21 161.56, 4.13 157.17 C5.04 152.77, 6.11 148.4, 7.32 144.08 C8.53 139.75, 9.89 135.46, 11.39 131.24 C12.9 127.01, 14.55 122.82, 16.34 118.7 C18.12 114.58, 20.06 110.52, 22.12 106.53 C24.19 102.55, 26.39 98.63, 28.72 94.79 C31.06 90.96, 33.53 87.19, 36.11 83.53 C38.7 79.86, 41.42 76.27, 44.25 72.79 C47.09 69.31, 50.05 65.92, 53.11 62.64 C56.17 59.36, 59.36 56.17, 62.64 53.11 C65.92 50.05, 69.31 47.09, 72.79 44.25 C76.27 41.42, 79.86 38.7, 83.53 36.11 C87.19 33.53, 90.96 31.06, 94.79 28.72 C98.63 26.39, 102.55 24.19, 106.53 22.12 C110.52 20.06, 114.58 18.12, 118.7 16.34 C122.82 14.55, 127.01 12.9, 131.24 11.39 C135.46 9.89, 139.75 8.53, 144.08 7.32 C148.4 6.11, 152.77 5.04, 157.17 4.13 C161.56 3.21, 166 2.45, 170.44 1.84 C174.89 1.23, 179.37 0.77, 183.85 0.46 C188.32 0.15, 192.82 0, 197.31 0 C201.8 0, 206.3 0.15, 210.78 0.46 C215.25 0.77, 219.73 1.23, 224.18 1.84 C228.62 2.45, 233.06 3.21, 237.45 4.13 C241.85 5.04, 246.22 6.11, 250.54 7.32 C254.87 8.53, 259.16 9.89, 263.39 11.39 C267.61 12.9, 271.8 14.55, 275.92 16.34 C280.04 18.12, 284.1 20.06, 288.09 22.12 C292.07 24.19, 295.99 26.39, 299.83 28.72 C303.66 31.06, 307.43 33.53, 311.1 36.11 C314.76 38.7, 318.35 41.42, 321.83 44.25 C325.31 47.09, 328.71 50.05, 331.99 53.11 C335.27 56.17, 338.45 59.36, 341.51 62.64 C344.58 65.92, 347.53 69.31, 350.37 72.79 C353.2 76.27, 355.92 79.86, 358.51 83.53 C361.1 87.19, 363.56 90.96, 365.9 94.79 C368.23 98.63, 370.43 102.55, 372.5 106.53 C374.56 110.52, 376.5 114.58, 378.29 118.7 C380.07 122.82, 381.73 127.01, 383.23 131.24 C384.73 135.46, 386.09 139.75, 387.3 144.08 C388.51 148.4, 389.58 152.77, 390.49 157.17 C391.41 161.56, 392.17 166, 392.78 170.44 C393.39 174.89, 393.85 179.37, 394.16 183.85 C394.47 188.32, 394.62 192.82, 394.62 197.31" stroke="none" stroke-width="0" fill="#efefef"></path><path d="M394.62 197.31 C394.62 201.8, 394.47 206.3, 394.16 210.78 C393.85 215.25, 393.39 219.73, 392.78 224.18 C392.17 228.62, 391.41 233.06, 390.49 237.45 C389.58 241.85, 388.51 246.22, 387.3 250.54 C386.09 254.87, 384.73 259.16, 383.23 263.39 C381.73 267.61, 380.07 271.8, 378.29 275.92 C376.5 280.04, 374.56 284.1, 372.5 288.09 C370.43 292.07, 368.23 295.99, 365.9 299.83 C363.56 303.66, 361.1 307.43, 358.51 311.1 C355.92 314.76, 353.2 318.35, 350.37 321.83 C347.53 325.31, 344.58 328.71, 341.51 331.99 C338.45 335.27, 335.27 338.45, 331.99 341.51 C328.71 344.58, 325.31 347.53, 321.83 350.37 C318.35 353.2, 314.76 355.92, 311.1 358.51 C307.43 361.1, 303.66 363.56, 299.83 365.9 C295.99 368.23, 292.07 370.43, 288.09 372.5 C284.1 374.56, 280.04 376.5, 275.92 378.29 C271.8 380.07, 267.61 381.73, 263.39 383.23 C259.16 384.73, 254.87 386.09, 250.54 387.3 C246.22 388.51, 241.85 389.58, 237.45 390.49 C233.06 391.41, 228.62 392.17, 224.18 392.78 C219.73 393.39, 215.25 393.85, 210.78 394.16 C206.3 394.47, 201.8 394.62, 197.31 394.62 C192.82 394.62, 188.32 394.47, 183.85 394.16 C179.37 393.85, 174.89 393.39, 170.44 392.78 C166 392.17, 161.56 391.41, 157.17 390.49 C152.77 389.58, 148.4 388.51, 144.08 387.3 C139.75 386.09, 135.46 384.73, 131.24 383.23 C127.01 381.73, 122.82 380.07, 118.7 378.29 C114.58 376.5, 110.52 374.56, 106.53 372.5 C102.55 370.43, 98.63 368.23, 94.79 365.9 C90.96 363.56, 87.19 361.1, 83.53 358.51 C79.86 355.92, 76.27 353.2, 72.79 350.37 C69.31 347.53, 65.92 344.58, 62.64 341.51 C59.36 338.45, 56.17 335.27, 53.11 331.99 C50.05 328.71, 47.09 325.31, 44.25 321.83 C41.42 318.35, 38.7 314.76, 36.11 311.1 C33.53 307.43, 31.06 303.66, 28.72 299.83 C26.39 295.99, 24.19 292.07, 22.12 288.09 C20.06 284.1, 18.12 280.04, 16.34 275.92 C14.55 271.8, 12.9 267.61, 11.39 263.39 C9.89 259.16, 8.53 254.87, 7.32 250.54 C6.11 246.22, 5.04 241.85, 4.13 237.45 C3.21 233.06, 2.45 228.62, 1.84 224.18 C1.23 219.73, 0.77 215.25, 0.46 210.78 C0.15 206.3, 0 201.8, 0 197.31 C0 192.82, 0.15 188.32, 0.46 183.85 C0.77 179.37, 1.23 174.89, 1.84 170.44 C2.45 166, 3.21 161.56, 4.13 157.17 C5.04 152.77, 6.11 148.4, 7.32 144.08 C8.53 139.75, 9.89 135.46, 11.39 131.24 C12.9 127.01, 14.55 122.82, 16.34 118.7 C18.12 114.58, 20.06 110.52, 22.12 106.53 C24.19 102.55, 26.39 98.63, 28.72 94.79 C31.06 90.96, 33.53 87.19, 36.11 83.53 C38.7 79.86, 41.42 76.27, 44.25 72.79 C47.09 69.31, 50.05 65.92, 53.11 62.64 C56.17 59.36, 59.36 56.17, 62.64 53.11 C65.92 50.05, 69.31 47.09, 72.79 44.25 C76.27 41.42, 79.86 38.7, 83.53 36.11 C87.19 33.53, 90.96 31.06, 94.79 28.72 C98.63 26.39, 102.55 24.19, 106.53 22.12 C110.52 20.06, 114.58 18.12, 118.7 16.34 C122.82 14.55, 127.01 12.9, 131.24 11.39 C135.46 9.89, 139.75 8.53, 144.08 7.32 C148.4 6.11, 152.77 5.04, 157.17 4.13 C161.56 3.21, 166 2.45, 170.44 1.84 C174.89 1.23, 179.37 0.77, 183.85 0.46 C188.32 0.15, 192.82 0, 197.31 0 C201.8 0, 206.3 0.15, 210.78 0.46 C215.25 0.77, 219.73 1.23, 224.18 1.84 C228.62 2.45, 233.06 3.21, 237.45 4.13 C241.85 5.04, 246.22 6.11, 250.54 7.32 C254.87 8.53, 259.16 9.89, 263.39 11.39 C267.61 12.9, 271.8 14.55, 275.92 16.34 C280.04 18.12, 284.1 20.06, 288.09 22.12 C292.07 24.19, 295.99 26.39, 299.83 28.72 C303.66 31.06, 307.43 33.53, 311.1 36.11 C314.76 38.7, 318.35 41.42, 321.83 44.25 C325.31 47.09, 328.71 50.05, 331.99 53.11 C335.27 56.17, 338.45 59.36, 341.51 62.64 C344.58 65.92, 347.53 69.31, 350.37 72.79 C353.2 76.27, 355.92 79.86, 358.51 83.53 C361.1 87.19, 363.56 90.96, 365.9 94.79 C368.23 98.63, 370.43 102.55, 372.5 106.53 C374.56 110.52, 376.5 114.58, 378.29 118.7 C380.07 122.82, 381.73 127.01, 383.23 131.24 C384.73 135.46, 386.09 139.75, 387.3 144.08 C388.51 148.4, 389.58 152.77, 390.49 157.17 C391.41 161.56, 392.17 166, 392.78 170.44 C393.39 174.89, 393.85 179.37, 394.16 183.85 C394.47 188.32, 394.62 192.82, 394.62 197.31" stroke="#333" stroke-width="4" fill="none"></path></g><g stroke-linecap="round" transform="translate(190.5216952604933 50) rotate(0 20 20)"><path d="M40 20 C40 21.16, 39.9 22.33, 39.7 23.47 C39.5 24.61, 39.19 25.75, 38.79 26.84 C38.4 27.93, 37.9 29, 37.32 30 C36.74 31, 36.07 31.97, 35.32 32.86 C34.58 33.74, 33.74 34.58, 32.86 35.32 C31.97 36.07, 31 36.74, 30 37.32 C29 37.9, 27.93 38.4, 26.84 38.79 C25.75 39.19, 24.61 39.5, 23.47 39.7 C22.33 39.9, 21.16 40, 20 40 C18.84 40, 17.67 39.9, 16.53 39.7 C15.39 39.5, 14.25 39.19, 13.16 38.79 C12.07 38.4, 11 37.9, 10 37.32 C9 36.74, 8.03 36.07, 7.14 35.32 C6.26 34.58, 5.42 33.74, 4.68 32.86 C3.93 31.97, 3.26 31, 2.68 30 C2.1 29, 1.6 27.93, 1.21 26.84 C0.81 25.75, 0.5 24.61, 0.3 23.47 C0.1 22.33, 0 21.16, 0 20 C0 18.84, 0.1 17.67, 0.3 16.53 C0.5 15.39, 0.81 14.25, 1.21 13.16 C1.6 12.07, 2.1 11, 2.68 10 C3.26 9, 3.93 8.03, 4.68 7.14 C5.42 6.26, 6.26 5.42, 7.14 4.68 C8.03 3.93, 9 3.26, 10 2.68 C11 2.1, 12.07 1.6, 13.16 1.21 C14.25 0.81, 15.39 0.5, 16.53 0.3 C17.67 0.1, 18.84 0, 20 0 C21.16 0, 22.33 0.1, 23.47 0.3 C24.61 0.5, 25.75 0.81, 26.84 1.21 C27.93 1.6, 29 2.1, 30 2.68 C31 3.26, 31.97 3.93, 32.86 4.68 C33.74 5.42, 34.58 6.26, 35.32 7.14 C36.07 8.03, 36.74 9, 37.32 10 C37.9 11, 38.4 12.07, 38.79 13.16 C39.19 14.25, 39.5 15.39, 39.7 16.53 C39.9 17.67, 39.95 19.42, 40 20 C40.05 20.58, 40.05 19.42, 40 20" stroke="none" stroke-width="0" fill="#333"></path><path d="M40 20 C40 21.16, 39.9 22.33, 39.7 23.47 C39.5 24.61, 39.19 25.75, 38.79 26.84 C38.4 27.93, 37.9 29, 37.32 30 C36.74 31, 36.07 31.97, 35.32 32.86 C34.58 33.74, 33.74 34.58, 32.86 35.32 C31.97 36.07, 31 36.74, 30 37.32 C29 37.9, 27.93 38.4, 26.84 38.79 C25.75 39.19, 24.61 39.5, 23.47 39.7 C22.33 39.9, 21.16 40, 20 40 C18.84 40, 17.67 39.9, 16.53 39.7 C15.39 39.5, 14.25 39.19, 13.16 38.79 C12.07 38.4, 11 37.9, 10 37.32 C9 36.74, 8.03 36.07, 7.14 35.32 C6.26 34.58, 5.42 33.74, 4.68 32.86 C3.93 31.97, 3.26 31, 2.68 30 C2.1 29, 1.6 27.93, 1.21 26.84 C0.81 25.75, 0.5 24.61, 0.3 23.47 C0.1 22.33, 0 21.16, 0 20 C0 18.84, 0.1 17.67, 0.3 16.53 C0.5 15.39, 0.81 14.25, 1.21 13.16 C1.6 12.07, 2.1 11, 2.68 10 C3.26 9, 3.93 8.03, 4.68 7.14 C5.42 6.26, 6.26 5.42, 7.14 4.68 C8.03 3.93, 9 3.26, 10 2.68 C11 2.1, 12.07 1.6, 13.16 1.21 C14.25 0.81, 15.39 0.5, 16.53 0.3 C17.67 0.1, 18.84 0, 20 0 C21.16 0, 22.33 0.1, 23.47 0.3 C24.61 0.5, 25.75 0.81, 26.84 1.21 C27.93 1.6, 29 2.1, 30 2.68 C31 3.26, 31.97 3.93, 32.86 4.68 C33.74 5.42, 34.58 6.26, 35.32 7.14 C36.07 8.03, 36.74 9, 37.32 10 C37.9 11, 38.4 12.07, 38.79 13.16 C39.19 14.25, 39.5 15.39, 39.7 16.53 C39.9 17.67, 39.95 19.42, 40 20 C40.05 20.58, 40.05 19.42, 40 20" stroke="transparent" stroke-width="1" fill="none"></path></g><g stroke-linecap="round" transform="translate(300.5216952604933 109) rotate(0 20 20)"><path d="M40 20 C40 21.16, 39.9 22.33, 39.7 23.47 C39.5 24.61, 39.19 25.75, 38.79 26.84 C38.4 27.93, 37.9 29, 37.32 30 C36.74 31, 36.07 31.97, 35.32 32.86 C34.58 33.74, 33.74 34.58, 32.86 35.32 C31.97 36.07, 31 36.74, 30 37.32 C29 37.9, 27.93 38.4, 26.84 38.79 C25.75 39.19, 24.61 39.5, 23.47 39.7 C22.33 39.9, 21.16 40, 20 40 C18.84 40, 17.67 39.9, 16.53 39.7 C15.39 39.5, 14.25 39.19, 13.16 38.79 C12.07 38.4, 11 37.9, 10 37.32 C9 36.74, 8.03 36.07, 7.14 35.32 C6.26 34.58, 5.42 33.74, 4.68 32.86 C3.93 31.97, 3.26 31, 2.68 30 C2.1 29, 1.6 27.93, 1.21 26.84 C0.81 25.75, 0.5 24.61, 0.3 23.47 C0.1 22.33, 0 21.16, 0 20 C0 18.84, 0.1 17.67, 0.3 16.53 C0.5 15.39, 0.81 14.25, 1.21 13.16 C1.6 12.07, 2.1 11, 2.68 10 C3.26 9, 3.93 8.03, 4.68 7.14 C5.42 6.26, 6.26 5.42, 7.14 4.68 C8.03 3.93, 9 3.26, 10 2.68 C11 2.1, 12.07 1.6, 13.16 1.21 C14.25 0.81, 15.39 0.5, 16.53 0.3 C17.67 0.1, 18.84 0, 20 0 C21.16 0, 22.33 0.1, 23.47 0.3 C24.61 0.5, 25.75 0.81, 26.84 1.21 C27.93 1.6, 29 2.1, 30 2.68 C31 3.26, 31.97 3.93, 32.86 4.68 C33.74 5.42, 34.58 6.26, 35.32 7.14 C36.07 8.03, 36.74 9, 37.32 10 C37.9 11, 38.4 12.07, 38.79 13.16 C39.19 14.25, 39.5 15.39, 39.7 16.53 C39.9 17.67, 39.95 19.42, 40 20 C40.05 20.58, 40.05 19.42, 40 20" stroke="none" stroke-width="0" fill="#333"></path><path d="M40 20 C40 21.16, 39.9 22.33, 39.7 23.47 C39.5 24.61, 39.19 25.75, 38.79 26.84 C38.4 27.93, 37.9 29, 37.32 30 C36.74 31, 36.07 31.97, 35.32 32.86 C34.58 33.74, 33.74 34.58, 32.86 35.32 C31.97 36.07, 31 36.74, 30 37.32 C29 37.9, 27.93 38.4, 26.84 38.79 C25.75 39.19, 24.61 39.5, 23.47 39.7 C22.33 39.9, 21.16 40, 20 40 C18.84 40, 17.67 39.9, 16.53 39.7 C15.39 39.5, 14.25 39.19, 13.16 38.79 C12.07 38.4, 11 37.9, 10 37.32 C9 36.74, 8.03 36.07, 7.14 35.32 C6.26 34.58, 5.42 33.74, 4.68 32.86 C3.93 31.97, 3.26 31, 2.68 30 C2.1 29, 1.6 27.93, 1.21 26.84 C0.81 25.75, 0.5 24.61, 0.3 23.47 C0.1 22.33, 0 21.16, 0 20 C0 18.84, 0.1 17.67, 0.3 16.53 C0.5 15.39, 0.81 14.25, 1.21 13.16 C1.6 12.07, 2.1 11, 2.68 10 C3.26 9, 3.93 8.03, 4.68 7.14 C5.42 6.26, 6.26 5.42, 7.14 4.68 C8.03 3.93, 9 3.26, 10 2.68 C11 2.1, 12.07 1.6, 13.16 1.21 C14.25 0.81, 15.39 0.5, 16.53 0.3 C17.67 0.1, 18.84 0, 20 0 C21.16 0, 22.33 0.1, 23.47 0.3 C24.61 0.5, 25.75 0.81, 26.84 1.21 C27.93 1.6, 29 2.1, 30 2.68 C31 3.26, 31.97 3.93, 32.86 4.68 C33.74 5.42, 34.58 6.26, 35.32 7.14 C36.07 8.03, 36.74 9, 37.32 10 C37.9 11, 38.4 12.07, 38.79 13.16 C39.19 14.25, 39.5 15.39, 39.7 16.53 C39.9 17.67, 39.95 19.42, 40 20 C40.05 20.58, 40.05 19.42, 40 20" stroke="transparent" stroke-width="1" fill="none"></path></g><g stroke-linecap="round" transform="translate(220.22946440448504 89.43991166679734) rotate(27.292441292947856 46.68002643591535 7.617609973479375)"><path d="M0 0 L93.36 0 L93.36 15.24 L0 15.24" stroke="none" stroke-width="0" fill="#333"></path><path d="M0 0 C33.56 0, 67.13 0, 93.36 0 M0 0 C25.2 0, 50.4 0, 93.36 0 M93.36 0 C93.36 4.87, 93.36 9.75, 93.36 15.24 M93.36 0 C93.36 3.21, 93.36 6.43, 93.36 15.24 M93.36 15.24 C61.72 15.24, 30.08 15.24, 0 15.24 M93.36 15.24 C56.12 15.24, 18.89 15.24, 0 15.24 M0 15.24 C0 11.81, 0 8.38, 0 0 M0 15.24 C0 11.24, 0 7.24, 0 0" stroke="transparent" stroke-width="4" fill="none"></path></g><g stroke-linecap="round" transform="translate(239.82445821915098 139.5501679137069) rotate(147.380756928797 45.87762141717212 7.617609973479375)"><path d="M0 0 L91.76 0 L91.76 15.24 L0 15.24" stroke="none" stroke-width="0" fill="#333"></path><path d="M0 0 C34.71 0, 69.43 0, 91.76 0 M0 0 C22.84 0, 45.69 0, 91.76 0 M91.76 0 C91.76 3.24, 91.76 6.47, 91.76 15.24 M91.76 0 C91.76 5.64, 91.76 11.29, 91.76 15.24 M91.76 15.24 C61.7 15.24, 31.64 15.24, 0 15.24 M91.76 15.24 C63.69 15.24, 35.62 15.24, 0 15.24 M0 15.24 C0 10.18, 0 5.12, 0 0 M0 15.24 C0 11.21, 0 7.18, 0 0" stroke="transparent" stroke-width="4" fill="none"></path></g><g stroke-linecap="round" transform="translate(204.55285130046832 151.59291019242482) rotate(207.55281157671612 26.583273509510036 7.617609973479375)"><path d="M0 0 L53.17 0 L53.17 15.24 L0 15.24" stroke="none" stroke-width="0" fill="#333"></path><path d="M0 0 C16.06 0, 32.12 0, 53.17 0 M0 0 C15.44 0, 30.89 0, 53.17 0 M53.17 0 C53.17 5.93, 53.17 11.87, 53.17 15.24 M53.17 0 C53.17 3.23, 53.17 6.46, 53.17 15.24 M53.17 15.24 C35.64 15.24, 18.1 15.24, 0 15.24 M53.17 15.24 C41.78 15.24, 30.4 15.24, 0 15.24 M0 15.24 C0 11.51, 0 7.78, 0 0 M0 15.24 C0 9.94, 0 4.65, 0 0" stroke="transparent" stroke-width="4" fill="none"></path></g><g stroke-linecap="round" transform="translate(141.6016050247381 159.46646998681354) rotate(329.1053577643369 39.422329002545666 7.617609973479375)"><path d="M0 0 L78.84 0 L78.84 15.24 L0 15.24" stroke="none" stroke-width="0" fill="#333"></path><path d="M0 0 C23.05 0, 46.11 0, 78.84 0 M0 0 C17.12 0, 34.23 0, 78.84 0 M78.84 0 C78.84 3.67, 78.84 7.35, 78.84 15.24 M78.84 0 C78.84 4.01, 78.84 8.03, 78.84 15.24 M78.84 15.24 C60.09 15.24, 41.34 15.24, 0 15.24 M78.84 15.24 C62.63 15.24, 46.42 15.24, 0 15.24 M0 15.24 C0 10, 0 4.77, 0 0 M0 15.24 C0 11.75, 0 8.26, 0 0" stroke="transparent" stroke-width="4" fill="none"></path></g><g stroke-linecap="round" transform="translate(84.44818599314385 100.92647425915493) rotate(329.1053577643369 59.48342930392573 7.617609973479375)"><path d="M0 0 L118.97 0 L118.97 15.24 L0 15.24" stroke="none" stroke-width="0" fill="#333"></path><path d="M0 0 C26.03 0, 52.05 0, 118.97 0 M0 0 C47.58 0, 95.17 0, 118.97 0 M118.97 0 C118.97 4.64, 118.97 9.27, 118.97 15.24 M118.97 0 C118.97 4.39, 118.97 8.77, 118.97 15.24 M118.97 15.24 C86.32 15.24, 53.68 15.24, 0 15.24 M118.97 15.24 C85.28 15.24, 51.59 15.24, 0 15.24 M0 15.24 C0 9.25, 0 3.26, 0 0 M0 15.24 C0 11.6, 0 7.96, 0 0" stroke="transparent" stroke-width="4" fill="none"></path></g><g stroke-linecap="round" transform="translate(70.02184945439149 122.5285295656031) rotate(0 20 20)"><path d="M40 20 C40 21.16, 39.9 22.33, 39.7 23.47 C39.5 24.61, 39.19 25.75, 38.79 26.84 C38.4 27.93, 37.9 29, 37.32 30 C36.74 31, 36.07 31.97, 35.32 32.86 C34.58 33.74, 33.74 34.58, 32.86 35.32 C31.97 36.07, 31 36.74, 30 37.32 C29 37.9, 27.93 38.4, 26.84 38.79 C25.75 39.19, 24.61 39.5, 23.47 39.7 C22.33 39.9, 21.16 40, 20 40 C18.84 40, 17.67 39.9, 16.53 39.7 C15.39 39.5, 14.25 39.19, 13.16 38.79 C12.07 38.4, 11 37.9, 10 37.32 C9 36.74, 8.03 36.07, 7.14 35.32 C6.26 34.58, 5.42 33.74, 4.68 32.86 C3.93 31.97, 3.26 31, 2.68 30 C2.1 29, 1.6 27.93, 1.21 26.84 C0.81 25.75, 0.5 24.61, 0.3 23.47 C0.1 22.33, 0 21.16, 0 20 C0 18.84, 0.1 17.67, 0.3 16.53 C0.5 15.39, 0.81 14.25, 1.21 13.16 C1.6 12.07, 2.1 11, 2.68 10 C3.26 9, 3.93 8.03, 4.68 7.14 C5.42 6.26, 6.26 5.42, 7.14 4.68 C8.03 3.93, 9 3.26, 10 2.68 C11 2.1, 12.07 1.6, 13.16 1.21 C14.25 0.81, 15.39 0.5, 16.53 0.3 C17.67 0.1, 18.84 0, 20 0 C21.16 0, 22.33 0.1, 23.47 0.3 C24.61 0.5, 25.75 0.81, 26.84 1.21 C27.93 1.6, 29 2.1, 30 2.68 C31 3.26, 31.97 3.93, 32.86 4.68 C33.74 5.42, 34.58 6.26, 35.32 7.14 C36.07 8.03, 36.74 9, 37.32 10 C37.9 11, 38.4 12.07, 38.79 13.16 C39.19 14.25, 39.5 15.39, 39.7 16.53 C39.9 17.67, 39.95 19.42, 40 20 C40.05 20.58, 40.05 19.42, 40 20" stroke="none" stroke-width="0" fill="#333"></path><path d="M40 20 C40 21.16, 39.9 22.33, 39.7 23.47 C39.5 24.61, 39.19 25.75, 38.79 26.84 C38.4 27.93, 37.9 29, 37.32 30 C36.74 31, 36.07 31.97, 35.32 32.86 C34.58 33.74, 33.74 34.58, 32.86 35.32 C31.97 36.07, 31 36.74, 30 37.32 C29 37.9, 27.93 38.4, 26.84 38.79 C25.75 39.19, 24.61 39.5, 23.47 39.7 C22.33 39.9, 21.16 40, 20 40 C18.84 40, 17.67 39.9, 16.53 39.7 C15.39 39.5, 14.25 39.19, 13.16 38.79 C12.07 38.4, 11 37.9, 10 37.32 C9 36.74, 8.03 36.07, 7.14 35.32 C6.26 34.58, 5.42 33.74, 4.68 32.86 C3.93 31.97, 3.26 31, 2.68 30 C2.1 29, 1.6 27.93, 1.21 26.84 C0.81 25.75, 0.5 24.61, 0.3 23.47 C0.1 22.33, 0 21.16, 0 20 C0 18.84, 0.1 17.67, 0.3 16.53 C0.5 15.39, 0.81 14.25, 1.21 13.16 C1.6 12.07, 2.1 11, 2.68 10 C3.26 9, 3.93 8.03, 4.68 7.14 C5.42 6.26, 6.26 5.42, 7.14 4.68 C8.03 3.93, 9 3.26, 10 2.68 C11 2.1, 12.07 1.6, 13.16 1.21 C14.25 0.81, 15.39 0.5, 16.53 0.3 C17.67 0.1, 18.84 0, 20 0 C21.16 0, 22.33 0.1, 23.47 0.3 C24.61 0.5, 25.75 0.81, 26.84 1.21 C27.93 1.6, 29 2.1, 30 2.68 C31 3.26, 31.97 3.93, 32.86 4.68 C33.74 5.42, 34.58 6.26, 35.32 7.14 C36.07 8.03, 36.74 9, 37.32 10 C37.9 11, 38.4 12.07, 38.79 13.16 C39.19 14.25, 39.5 15.39, 39.7 16.53 C39.9 17.67, 39.95 19.42, 40 20 C40.05 20.58, 40.05 19.42, 40 20" stroke="transparent" stroke-width="1" fill="none"></path></g><g stroke-linecap="round" transform="translate(85.04343904252164 156.3824532590388) rotate(27.89727103096493 39.422329002545666 7.617609973479375)"><path d="M0 0 L78.84 0 L78.84 15.24 L0 15.24" stroke="none" stroke-width="0" fill="#333"></path><path d="M0 0 C28.1 0, 56.2 0, 78.84 0 M0 0 C25.94 0, 51.87 0, 78.84 0 M78.84 0 C78.84 3.39, 78.84 6.78, 78.84 15.24 M78.84 0 C78.84 4.73, 78.84 9.47, 78.84 15.24 M78.84 15.24 C51.65 15.24, 24.46 15.24, 0 15.24 M78.84 15.24 C58.16 15.24, 37.47 15.24, 0 15.24 M0 15.24 C0 9.99, 0 4.75, 0 0 M0 15.24 C0 9.55, 0 3.86, 0 0" stroke="transparent" stroke-width="4" fill="none"></path></g><g stroke-linecap="round" transform="translate(133.80171341115056 189.48440099553954) rotate(89.99999999999994 21.529384280114755 7.617609973479375)"><path d="M0 0 L43.06 0 L43.06 15.24 L0 15.24" stroke="none" stroke-width="0" fill="#333"></path><path d="M0 0 C8.96 0, 17.92 0, 43.06 0 M0 0 C10.62 0, 21.25 0, 43.06 0 M43.06 0 C43.06 3.13, 43.06 6.26, 43.06 15.24 M43.06 0 C43.06 4.95, 43.06 9.89, 43.06 15.24 M43.06 15.24 C29.97 15.24, 16.87 15.24, 0 15.24 M43.06 15.24 C34.04 15.24, 25.02 15.24, 0 15.24 M0 15.24 C0 11.95, 0 8.66, 0 0 M0 15.24 C0 11.31, 0 7.39, 0 0" stroke="transparent" stroke-width="4" fill="none"></path></g><g stroke-linecap="round" transform="translate(55.520080250509636 173.82807436341318) rotate(89.99999999999994 34.94909282193839 7.617609973479375)"><path d="M0 0 L69.9 0 L69.9 15.24 L0 15.24" stroke="none" stroke-width="0" fill="#333"></path><path d="M0 0 C21.76 0, 43.52 0, 69.9 0 M0 0 C15.38 0, 30.75 0, 69.9 0 M69.9 0 C69.9 4.16, 69.9 8.32, 69.9 15.24 M69.9 0 C69.9 3.44, 69.9 6.88, 69.9 15.24 M69.9 15.24 C48.17 15.24, 26.44 15.24, 0 15.24 M69.9 15.24 C54.57 15.24, 39.24 15.24, 0 15.24 M0 15.24 C0 9.79, 0 4.35, 0 0 M0 15.24 C0 10.6, 0 5.96, 0 0" stroke="transparent" stroke-width="4" fill="none"></path></g><g stroke-linecap="round" transform="translate(190.4998458061018 327.1001115864601) rotate(0 20 20)"><path d="M40 20 C40 21.16, 39.9 22.33, 39.7 23.47 C39.5 24.61, 39.19 25.75, 38.79 26.84 C38.4 27.93, 37.9 29, 37.32 30 C36.74 31, 36.07 31.97, 35.32 32.86 C34.58 33.74, 33.74 34.58, 32.86 35.32 C31.97 36.07, 31 36.74, 30 37.32 C29 37.9, 27.93 38.4, 26.84 38.79 C25.75 39.19, 24.61 39.5, 23.47 39.7 C22.33 39.9, 21.16 40, 20 40 C18.84 40, 17.67 39.9, 16.53 39.7 C15.39 39.5, 14.25 39.19, 13.16 38.79 C12.07 38.4, 11 37.9, 10 37.32 C9 36.74, 8.03 36.07, 7.14 35.32 C6.26 34.58, 5.42 33.74, 4.68 32.86 C3.93 31.97, 3.26 31, 2.68 30 C2.1 29, 1.6 27.93, 1.21 26.84 C0.81 25.75, 0.5 24.61, 0.3 23.47 C0.1 22.33, 0 21.16, 0 20 C0 18.84, 0.1 17.67, 0.3 16.53 C0.5 15.39, 0.81 14.25, 1.21 13.16 C1.6 12.07, 2.1 11, 2.68 10 C3.26 9, 3.93 8.03, 4.68 7.14 C5.42 6.26, 6.26 5.42, 7.14 4.68 C8.03 3.93, 9 3.26, 10 2.68 C11 2.1, 12.07 1.6, 13.16 1.21 C14.25 0.81, 15.39 0.5, 16.53 0.3 C17.67 0.1, 18.84 0, 20 0 C21.16 0, 22.33 0.1, 23.47 0.3 C24.61 0.5, 25.75 0.81, 26.84 1.21 C27.93 1.6, 29 2.1, 30 2.68 C31 3.26, 31.97 3.93, 32.86 4.68 C33.74 5.42, 34.58 6.26, 35.32 7.14 C36.07 8.03, 36.74 9, 37.32 10 C37.9 11, 38.4 12.07, 38.79 13.16 C39.19 14.25, 39.5 15.39, 39.7 16.53 C39.9 17.67, 39.95 19.42, 40 20 C40.05 20.58, 40.05 19.42, 40 20" stroke="none" stroke-width="0" fill="#333"></path><path d="M40 20 C40 21.16, 39.9 22.33, 39.7 23.47 C39.5 24.61, 39.19 25.75, 38.79 26.84 C38.4 27.93, 37.9 29, 37.32 30 C36.74 31, 36.07 31.97, 35.32 32.86 C34.58 33.74, 33.74 34.58, 32.86 35.32 C31.97 36.07, 31 36.74, 30 37.32 C29 37.9, 27.93 38.4, 26.84 38.79 C25.75 39.19, 24.61 39.5, 23.47 39.7 C22.33 39.9, 21.16 40, 20 40 C18.84 40, 17.67 39.9, 16.53 39.7 C15.39 39.5, 14.25 39.19, 13.16 38.79 C12.07 38.4, 11 37.9, 10 37.32 C9 36.74, 8.03 36.07, 7.14 35.32 C6.26 34.58, 5.42 33.74, 4.68 32.86 C3.93 31.97, 3.26 31, 2.68 30 C2.1 29, 1.6 27.93, 1.21 26.84 C0.81 25.75, 0.5 24.61, 0.3 23.47 C0.1 22.33, 0 21.16, 0 20 C0 18.84, 0.1 17.67, 0.3 16.53 C0.5 15.39, 0.81 14.25, 1.21 13.16 C1.6 12.07, 2.1 11, 2.68 10 C3.26 9, 3.93 8.03, 4.68 7.14 C5.42 6.26, 6.26 5.42, 7.14 4.68 C8.03 3.93, 9 3.26, 10 2.68 C11 2.1, 12.07 1.6, 13.16 1.21 C14.25 0.81, 15.39 0.5, 16.53 0.3 C17.67 0.1, 18.84 0, 20 0 C21.16 0, 22.33 0.1, 23.47 0.3 C24.61 0.5, 25.75 0.81, 26.84 1.21 C27.93 1.6, 29 2.1, 30 2.68 C31 3.26, 31.97 3.93, 32.86 4.68 C33.74 5.42, 34.58 6.26, 35.32 7.14 C36.07 8.03, 36.74 9, 37.32 10 C37.9 11, 38.4 12.07, 38.79 13.16 C39.19 14.25, 39.5 15.39, 39.7 16.53 C39.9 17.67, 39.95 19.42, 40 20 C40.05 20.58, 40.05 19.42, 40 20" stroke="transparent" stroke-width="1" fill="none"></path></g><g stroke-linecap="round" transform="translate(300.4998458061018 268.1001115864601) rotate(0 20 20)"><path d="M40 20 C40 21.16, 39.9 22.33, 39.7 23.47 C39.5 24.61, 39.19 25.75, 38.79 26.84 C38.4 27.93, 37.9 29, 37.32 30 C36.74 31, 36.07 31.97, 35.32 32.86 C34.58 33.74, 33.74 34.58, 32.86 35.32 C31.97 36.07, 31 36.74, 30 37.32 C29 37.9, 27.93 38.4, 26.84 38.79 C25.75 39.19, 24.61 39.5, 23.47 39.7 C22.33 39.9, 21.16 40, 20 40 C18.84 40, 17.67 39.9, 16.53 39.7 C15.39 39.5, 14.25 39.19, 13.16 38.79 C12.07 38.4, 11 37.9, 10 37.32 C9 36.74, 8.03 36.07, 7.14 35.32 C6.26 34.58, 5.42 33.74, 4.68 32.86 C3.93 31.97, 3.26 31, 2.68 30 C2.1 29, 1.6 27.93, 1.21 26.84 C0.81 25.75, 0.5 24.61, 0.3 23.47 C0.1 22.33, 0 21.16, 0 20 C0 18.84, 0.1 17.67, 0.3 16.53 C0.5 15.39, 0.81 14.25, 1.21 13.16 C1.6 12.07, 2.1 11, 2.68 10 C3.26 9, 3.93 8.03, 4.68 7.14 C5.42 6.26, 6.26 5.42, 7.14 4.68 C8.03 3.93, 9 3.26, 10 2.68 C11 2.1, 12.07 1.6, 13.16 1.21 C14.25 0.81, 15.39 0.5, 16.53 0.3 C17.67 0.1, 18.84 0, 20 0 C21.16 0, 22.33 0.1, 23.47 0.3 C24.61 0.5, 25.75 0.81, 26.84 1.21 C27.93 1.6, 29 2.1, 30 2.68 C31 3.26, 31.97 3.93, 32.86 4.68 C33.74 5.42, 34.58 6.26, 35.32 7.14 C36.07 8.03, 36.74 9, 37.32 10 C37.9 11, 38.4 12.07, 38.79 13.16 C39.19 14.25, 39.5 15.39, 39.7 16.53 C39.9 17.67, 39.95 19.42, 40 20 C40.05 20.58, 40.05 19.42, 40 20" stroke="none" stroke-width="0" fill="#333"></path><path d="M40 20 C40 21.16, 39.9 22.33, 39.7 23.47 C39.5 24.61, 39.19 25.75, 38.79 26.84 C38.4 27.93, 37.9 29, 37.32 30 C36.74 31, 36.07 31.97, 35.32 32.86 C34.58 33.74, 33.74 34.58, 32.86 35.32 C31.97 36.07, 31 36.74, 30 37.32 C29 37.9, 27.93 38.4, 26.84 38.79 C25.75 39.19, 24.61 39.5, 23.47 39.7 C22.33 39.9, 21.16 40, 20 40 C18.84 40, 17.67 39.9, 16.53 39.7 C15.39 39.5, 14.25 39.19, 13.16 38.79 C12.07 38.4, 11 37.9, 10 37.32 C9 36.74, 8.03 36.07, 7.14 35.32 C6.26 34.58, 5.42 33.74, 4.68 32.86 C3.93 31.97, 3.26 31, 2.68 30 C2.1 29, 1.6 27.93, 1.21 26.84 C0.81 25.75, 0.5 24.61, 0.3 23.47 C0.1 22.33, 0 21.16, 0 20 C0 18.84, 0.1 17.67, 0.3 16.53 C0.5 15.39, 0.81 14.25, 1.21 13.16 C1.6 12.07, 2.1 11, 2.68 10 C3.26 9, 3.93 8.03, 4.68 7.14 C5.42 6.26, 6.26 5.42, 7.14 4.68 C8.03 3.93, 9 3.26, 10 2.68 C11 2.1, 12.07 1.6, 13.16 1.21 C14.25 0.81, 15.39 0.5, 16.53 0.3 C17.67 0.1, 18.84 0, 20 0 C21.16 0, 22.33 0.1, 23.47 0.3 C24.61 0.5, 25.75 0.81, 26.84 1.21 C27.93 1.6, 29 2.1, 30 2.68 C31 3.26, 31.97 3.93, 32.86 4.68 C33.74 5.42, 34.58 6.26, 35.32 7.14 C36.07 8.03, 36.74 9, 37.32 10 C37.9 11, 38.4 12.07, 38.79 13.16 C39.19 14.25, 39.5 15.39, 39.7 16.53 C39.9 17.67, 39.95 19.42, 40 20 C40.05 20.58, 40.05 19.42, 40 20" stroke="transparent" stroke-width="1" fill="none"></path></g><g stroke-linecap="round" transform="translate(220.20761495009356 312.4249799727022) rotate(332.70755870705216 46.68002643591535 7.617609973479375)"><path d="M0 0 L93.36 0 L93.36 15.24 L0 15.24" stroke="none" stroke-width="0" fill="#333"></path><path d="M0 0 C30.32 0, 60.64 0, 93.36 0 M0 0 C24.23 0, 48.47 0, 93.36 0 M93.36 0 C93.36 6.07, 93.36 12.15, 93.36 15.24 M93.36 0 C93.36 5.05, 93.36 10.11, 93.36 15.24 M93.36 15.24 C59.75 15.24, 26.13 15.24, 0 15.24 M93.36 15.24 C58.66 15.24, 23.95 15.24, 0 15.24 M0 15.24 C0 9.59, 0 3.94, 0 0 M0 15.24 C0 10.68, 0 6.13, 0 0" stroke="transparent" stroke-width="4" fill="none"></path></g><g stroke-linecap="round" transform="translate(239.8026087647595 262.31472372579265) rotate(212.619243071203 45.87762141717212 7.617609973479375)"><path d="M0 0 L91.76 0 L91.76 15.24 L0 15.24" stroke="none" stroke-width="0" fill="#333"></path><path d="M0 0 C32.21 0, 64.43 0, 91.76 0 M0 0 C32.54 0, 65.08 0, 91.76 0 M91.76 0 C91.76 4.92, 91.76 9.84, 91.76 15.24 M91.76 0 C91.76 6.03, 91.76 12.07, 91.76 15.24 M91.76 15.24 C66.95 15.24, 42.15 15.24, 0 15.24 M91.76 15.24 C65.97 15.24, 40.18 15.24, 0 15.24 M0 15.24 C0 9.67, 0 4.1, 0 0 M0 15.24 C0 11.74, 0 8.24, 0 0" stroke="transparent" stroke-width="4" fill="none"></path></g><g stroke-linecap="round" transform="translate(204.5310018460732 250.27198144707472) rotate(152.4471884232839 26.583273509510036 7.617609973479375)"><path d="M0 0 L53.17 0 L53.17 15.24 L0 15.24" stroke="none" stroke-width="0" fill="#333"></path><path d="M0 0 C13.21 0, 26.43 0, 53.17 0 M0 0 C16.16 0, 32.33 0, 53.17 0 M53.17 0 C53.17 5.88, 53.17 11.76, 53.17 15.24 M53.17 0 C53.17 5.96, 53.17 11.92, 53.17 15.24 M53.17 15.24 C35.65 15.24, 18.14 15.24, 0 15.24 M53.17 15.24 C36.85 15.24, 20.53 15.24, 0 15.24 M0 15.24 C0 10.16, 0 5.08, 0 0 M0 15.24 C0 9.9, 0 4.57, 0 0" stroke="transparent" stroke-width="4" fill="none"></path></g><g stroke-linecap="round" transform="translate(141.5797555703466 242.398421652686) rotate(30.894642235663174 39.422329002545666 7.617609973479375)"><path d="M0 0 L78.84 0 L78.84 15.24 L0 15.24" stroke="none" stroke-width="0" fill="#333"></path><path d="M0 0 C17.34 0, 34.69 0, 78.84 0 M0 0 C29.52 0, 59.04 0, 78.84 0 M78.84 0 C78.84 4.61, 78.84 9.22, 78.84 15.24 M78.84 0 C78.84 5.45, 78.84 10.9, 78.84 15.24 M78.84 15.24 C61.75 15.24, 44.65 15.24, 0 15.24 M78.84 15.24 C50.37 15.24, 21.89 15.24, 0 15.24 M0 15.24 C0 11.1, 0 6.97, 0 0 M0 15.24 C0 11.57, 0 7.91, 0 0" stroke="transparent" stroke-width="4" fill="none"></path></g><g stroke-linecap="round" transform="translate(84.42633653875237 300.93841738034644) rotate(30.894642235663174 59.48342930392573 7.617609973479375)"><path d="M0 0 L118.97 0 L118.97 15.24 L0 15.24" stroke="none" stroke-width="0" fill="#333"></path><path d="M0 0 C29.29 0, 58.59 0, 118.97 0 M0 0 C39.37 0, 78.74 0, 118.97 0 M118.97 0 C118.97 5.9, 118.97 11.8, 118.97 15.24 M118.97 0 C118.97 4.01, 118.97 8.02, 118.97 15.24 M118.97 15.24 C79.22 15.24, 39.47 15.24, 0 15.24 M118.97 15.24 C93.95 15.24, 68.93 15.24, 0 15.24 M0 15.24 C0 10.35, 0 5.46, 0 0 M0 15.24 C0 9.7, 0 4.17, 0 0" stroke="transparent" stroke-width="4" fill="none"></path></g><g stroke-linecap="round" transform="translate(70 254.57158202085702) rotate(0 20 20)"><path d="M40 20 C40 21.16, 39.9 22.33, 39.7 23.47 C39.5 24.61, 39.19 25.75, 38.79 26.84 C38.4 27.93, 37.9 29, 37.32 30 C36.74 31, 36.07 31.97, 35.32 32.86 C34.58 33.74, 33.74 34.58, 32.86 35.32 C31.97 36.07, 31 36.74, 30 37.32 C29 37.9, 27.93 38.4, 26.84 38.79 C25.75 39.19, 24.61 39.5, 23.47 39.7 C22.33 39.9, 21.16 40, 20 40 C18.84 40, 17.67 39.9, 16.53 39.7 C15.39 39.5, 14.25 39.19, 13.16 38.79 C12.07 38.4, 11 37.9, 10 37.32 C9 36.74, 8.03 36.07, 7.14 35.32 C6.26 34.58, 5.42 33.74, 4.68 32.86 C3.93 31.97, 3.26 31, 2.68 30 C2.1 29, 1.6 27.93, 1.21 26.84 C0.81 25.75, 0.5 24.61, 0.3 23.47 C0.1 22.33, 0 21.16, 0 20 C0 18.84, 0.1 17.67, 0.3 16.53 C0.5 15.39, 0.81 14.25, 1.21 13.16 C1.6 12.07, 2.1 11, 2.68 10 C3.26 9, 3.93 8.03, 4.68 7.14 C5.42 6.26, 6.26 5.42, 7.14 4.68 C8.03 3.93, 9 3.26, 10 2.68 C11 2.1, 12.07 1.6, 13.16 1.21 C14.25 0.81, 15.39 0.5, 16.53 0.3 C17.67 0.1, 18.84 0, 20 0 C21.16 0, 22.33 0.1, 23.47 0.3 C24.61 0.5, 25.75 0.81, 26.84 1.21 C27.93 1.6, 29 2.1, 30 2.68 C31 3.26, 31.97 3.93, 32.86 4.68 C33.74 5.42, 34.58 6.26, 35.32 7.14 C36.07 8.03, 36.74 9, 37.32 10 C37.9 11, 38.4 12.07, 38.79 13.16 C39.19 14.25, 39.5 15.39, 39.7 16.53 C39.9 17.67, 39.95 19.42, 40 20 C40.05 20.58, 40.05 19.42, 40 20" stroke="none" stroke-width="0" fill="#333"></path><path d="M40 20 C40 21.16, 39.9 22.33, 39.7 23.47 C39.5 24.61, 39.19 25.75, 38.79 26.84 C38.4 27.93, 37.9 29, 37.32 30 C36.74 31, 36.07 31.97, 35.32 32.86 C34.58 33.74, 33.74 34.58, 32.86 35.32 C31.97 36.07, 31 36.74, 30 37.32 C29 37.9, 27.93 38.4, 26.84 38.79 C25.75 39.19, 24.61 39.5, 23.47 39.7 C22.33 39.9, 21.16 40, 20 40 C18.84 40, 17.67 39.9, 16.53 39.7 C15.39 39.5, 14.25 39.19, 13.16 38.79 C12.07 38.4, 11 37.9, 10 37.32 C9 36.74, 8.03 36.07, 7.14 35.32 C6.26 34.58, 5.42 33.74, 4.68 32.86 C3.93 31.97, 3.26 31, 2.68 30 C2.1 29, 1.6 27.93, 1.21 26.84 C0.81 25.75, 0.5 24.61, 0.3 23.47 C0.1 22.33, 0 21.16, 0 20 C0 18.84, 0.1 17.67, 0.3 16.53 C0.5 15.39, 0.81 14.25, 1.21 13.16 C1.6 12.07, 2.1 11, 2.68 10 C3.26 9, 3.93 8.03, 4.68 7.14 C5.42 6.26, 6.26 5.42, 7.14 4.68 C8.03 3.93, 9 3.26, 10 2.68 C11 2.1, 12.07 1.6, 13.16 1.21 C14.25 0.81, 15.39 0.5, 16.53 0.3 C17.67 0.1, 18.84 0, 20 0 C21.16 0, 22.33 0.1, 23.47 0.3 C24.61 0.5, 25.75 0.81, 26.84 1.21 C27.93 1.6, 29 2.1, 30 2.68 C31 3.26, 31.97 3.93, 32.86 4.68 C33.74 5.42, 34.58 6.26, 35.32 7.14 C36.07 8.03, 36.74 9, 37.32 10 C37.9 11, 38.4 12.07, 38.79 13.16 C39.19 14.25, 39.5 15.39, 39.7 16.53 C39.9 17.67, 39.95 19.42, 40 20 C40.05 20.58, 40.05 19.42, 40 20" stroke="transparent" stroke-width="1" fill="none"></path></g><g stroke-linecap="round" transform="translate(85.02158958812652 245.48243838046437) rotate(332.10272896903507 39.422329002545666 7.617609973479375)"><path d="M0 0 L78.84 0 L78.84 15.24 L0 15.24" stroke="none" stroke-width="0" fill="#333"></path><path d="M0 0 C31.19 0, 62.38 0, 78.84 0 M0 0 C18.7 0, 37.4 0, 78.84 0 M78.84 0 C78.84 3.62, 78.84 7.24, 78.84 15.24 M78.84 0 C78.84 5.72, 78.84 11.43, 78.84 15.24 M78.84 15.24 C48.01 15.24, 17.18 15.24, 0 15.24 M78.84 15.24 C61.92 15.24, 44.99 15.24, 0 15.24 M0 15.24 C0 9.79, 0 4.35, 0 0 M0 15.24 C0 9.89, 0 4.54, 0 0" stroke="transparent" stroke-width="4" fill="none"></path></g><g stroke-linecap="round" transform="translate(133.7798639567627 212.38049064396) rotate(270.00000000000006 21.529384280114755 7.617609973479375)"><path d="M0 0 L43.06 0 L43.06 15.24 L0 15.24" stroke="none" stroke-width="0" fill="#333"></path><path d="M0 0 C17.17 0, 34.33 0, 43.06 0 M0 0 C14.28 0, 28.57 0, 43.06 0 M43.06 0 C43.06 5.49, 43.06 10.97, 43.06 15.24 M43.06 0 C43.06 5.66, 43.06 11.33, 43.06 15.24 M43.06 15.24 C27.1 15.24, 11.15 15.24, 0 15.24 M43.06 15.24 C30.19 15.24, 17.32 15.24, 0 15.24 M0 15.24 C0 11.08, 0 6.92, 0 0 M0 15.24 C0 9.48, 0 3.72, 0 0" stroke="transparent" stroke-width="4" fill="none"></path></g><g stroke-linecap="round" transform="translate(55.49823079611815 228.0368172760882) rotate(270.00000000000006 34.94909282193839 7.617609973479375)"><path d="M0 0 L69.9 0 L69.9 15.24 L0 15.24" stroke="none" stroke-width="0" fill="#333"></path><path d="M0 0 C22.56 0, 45.12 0, 69.9 0 M0 0 C27.69 0, 55.37 0, 69.9 0 M69.9 0 C69.9 4.12, 69.9 8.24, 69.9 15.24 M69.9 0 C69.9 4.28, 69.9 8.56, 69.9 15.24 M69.9 15.24 C44.35 15.24, 18.8 15.24, 0 15.24 M69.9 15.24 C53.86 15.24, 37.82 15.24, 0 15.24 M0 15.24 C0 11.2, 0 7.17, 0 0 M0 15.24 C0 9.85, 0 4.46, 0 0" stroke="transparent" stroke-width="4" fill="none"></path></g></svg>